<mxfile host="app.diagrams.net" modified="2023-10-24T19:57:41.508Z" agent="Mozilla/5.0 (Windows NT 10.0; Win64; x64) AppleWebKit/537.36 (KHTML, like Gecko) Chrome/118.0.0.0 Safari/537.36" etag="-XIOC4l2QawT0TaTT1a5" version="22.0.7" type="github">
  <diagram id="C5RBs43oDa-KdzZeNtuy" name="Page-1">
    <mxGraphModel dx="1139" dy="665" grid="1" gridSize="10" guides="1" tooltips="1" connect="1" arrows="1" fold="1" page="1" pageScale="1" pageWidth="827" pageHeight="1169" math="0" shadow="0">
      <root>
        <mxCell id="WIyWlLk6GJQsqaUBKTNV-0" />
        <mxCell id="WIyWlLk6GJQsqaUBKTNV-1" parent="WIyWlLk6GJQsqaUBKTNV-0" />
        <mxCell id="jUcVNDu6kZ51KJkC1I8T-1" value="" style="ellipse;whiteSpace=wrap;html=1;fontSize=16;labelBackgroundColor=none;fillColor=#BC6C25;strokeColor=#DDA15E;fontColor=#FEFAE0;" vertex="1" parent="WIyWlLk6GJQsqaUBKTNV-1">
          <mxGeometry x="320" y="150" width="120" height="80" as="geometry" />
        </mxCell>
        <mxCell id="jUcVNDu6kZ51KJkC1I8T-4" value="&lt;b&gt;&lt;font style=&quot;font-size: 19px;&quot;&gt;Start&lt;/font&gt;&lt;/b&gt;" style="text;html=1;align=center;verticalAlign=middle;whiteSpace=wrap;rounded=0;fontSize=16;labelBackgroundColor=none;fontColor=#FEFAE0;" vertex="1" parent="WIyWlLk6GJQsqaUBKTNV-1">
          <mxGeometry x="310" y="157.5" width="140" height="65" as="geometry" />
        </mxCell>
        <mxCell id="jUcVNDu6kZ51KJkC1I8T-6" value="" style="endArrow=classic;html=1;rounded=0;strokeColor=#DDA15E;fontSize=12;fontColor=#FEFAE0;startSize=8;endSize=8;fillColor=#BC6C25;curved=1;exitX=0.558;exitY=1.025;exitDx=0;exitDy=0;exitPerimeter=0;" edge="1" parent="WIyWlLk6GJQsqaUBKTNV-1">
          <mxGeometry width="50" height="50" relative="1" as="geometry">
            <mxPoint x="379.8" y="230" as="sourcePoint" />
            <mxPoint x="380" y="300" as="targetPoint" />
            <Array as="points" />
          </mxGeometry>
        </mxCell>
        <mxCell id="jUcVNDu6kZ51KJkC1I8T-7" value="" style="shape=parallelogram;perimeter=parallelogramPerimeter;whiteSpace=wrap;html=1;fixedSize=1;strokeColor=#DDA15E;fontSize=16;fontColor=#FEFAE0;fillColor=#BC6C25;" vertex="1" parent="WIyWlLk6GJQsqaUBKTNV-1">
          <mxGeometry x="320" y="300" width="120" height="60" as="geometry" />
        </mxCell>
        <mxCell id="jUcVNDu6kZ51KJkC1I8T-8" value="&lt;font style=&quot;font-size: 16px;&quot;&gt;Podaj a&lt;br&gt;Podaj b&lt;br&gt;&lt;/font&gt;" style="text;html=1;align=center;verticalAlign=middle;whiteSpace=wrap;rounded=0;fontSize=16;labelBackgroundColor=none;fontColor=#FEFAE0;" vertex="1" parent="WIyWlLk6GJQsqaUBKTNV-1">
          <mxGeometry x="310" y="297.5" width="140" height="65" as="geometry" />
        </mxCell>
        <mxCell id="jUcVNDu6kZ51KJkC1I8T-9" value="" style="endArrow=classic;html=1;rounded=0;strokeColor=#DDA15E;fontSize=12;fontColor=#FEFAE0;startSize=8;endSize=8;fillColor=#BC6C25;curved=1;exitX=0.558;exitY=1.025;exitDx=0;exitDy=0;exitPerimeter=0;" edge="1" parent="WIyWlLk6GJQsqaUBKTNV-1">
          <mxGeometry width="50" height="50" relative="1" as="geometry">
            <mxPoint x="379.76" y="360" as="sourcePoint" />
            <mxPoint x="379.96" y="430" as="targetPoint" />
            <Array as="points" />
          </mxGeometry>
        </mxCell>
        <mxCell id="jUcVNDu6kZ51KJkC1I8T-10" value="" style="rounded=0;whiteSpace=wrap;html=1;strokeColor=#DDA15E;fontSize=16;fontColor=#FEFAE0;fillColor=#BC6C25;" vertex="1" parent="WIyWlLk6GJQsqaUBKTNV-1">
          <mxGeometry x="320" y="430" width="120" height="60" as="geometry" />
        </mxCell>
        <mxCell id="jUcVNDu6kZ51KJkC1I8T-12" value="&lt;font style=&quot;font-size: 13px;&quot;&gt;Pole = a*b&lt;br&gt;Obwod = (2*a)+(2*b)&lt;/font&gt;" style="text;html=1;strokeColor=none;fillColor=none;align=center;verticalAlign=middle;whiteSpace=wrap;rounded=0;fontSize=16;fontColor=#FEFAE0;" vertex="1" parent="WIyWlLk6GJQsqaUBKTNV-1">
          <mxGeometry x="320" y="445" width="125" height="30" as="geometry" />
        </mxCell>
        <mxCell id="jUcVNDu6kZ51KJkC1I8T-16" value="" style="endArrow=classic;html=1;rounded=0;strokeColor=#DDA15E;fontSize=12;fontColor=#FEFAE0;startSize=8;endSize=8;fillColor=#BC6C25;curved=1;exitX=0.558;exitY=1.025;exitDx=0;exitDy=0;exitPerimeter=0;" edge="1" parent="WIyWlLk6GJQsqaUBKTNV-1">
          <mxGeometry width="50" height="50" relative="1" as="geometry">
            <mxPoint x="379.58" y="490" as="sourcePoint" />
            <mxPoint x="379.78" y="560" as="targetPoint" />
            <Array as="points" />
          </mxGeometry>
        </mxCell>
        <mxCell id="jUcVNDu6kZ51KJkC1I8T-18" value="" style="shape=parallelogram;perimeter=parallelogramPerimeter;whiteSpace=wrap;html=1;fixedSize=1;strokeColor=#DDA15E;fontSize=16;fontColor=#FEFAE0;fillColor=#BC6C25;" vertex="1" parent="WIyWlLk6GJQsqaUBKTNV-1">
          <mxGeometry x="310" y="560" width="120" height="60" as="geometry" />
        </mxCell>
        <mxCell id="jUcVNDu6kZ51KJkC1I8T-19" value="&lt;font style=&quot;font-size: 13px;&quot;&gt;Pisz: Pole&lt;br&gt;Pisz: Obwod&lt;/font&gt;" style="text;html=1;strokeColor=none;fillColor=none;align=center;verticalAlign=middle;whiteSpace=wrap;rounded=0;fontSize=16;fontColor=#FEFAE0;" vertex="1" parent="WIyWlLk6GJQsqaUBKTNV-1">
          <mxGeometry x="324" y="575" width="90" height="30" as="geometry" />
        </mxCell>
        <mxCell id="jUcVNDu6kZ51KJkC1I8T-22" value="" style="endArrow=none;html=1;rounded=0;strokeColor=#DDA15E;fontSize=12;fontColor=#FEFAE0;startSize=8;endSize=8;fillColor=#BC6C25;curved=1;" edge="1" parent="WIyWlLk6GJQsqaUBKTNV-1">
          <mxGeometry width="50" height="50" relative="1" as="geometry">
            <mxPoint x="379.76" y="620" as="sourcePoint" />
            <mxPoint x="379.76" y="680" as="targetPoint" />
          </mxGeometry>
        </mxCell>
        <mxCell id="jUcVNDu6kZ51KJkC1I8T-24" value="" style="ellipse;whiteSpace=wrap;html=1;strokeColor=#DDA15E;fontSize=16;fontColor=#FEFAE0;fillColor=#BC6C25;" vertex="1" parent="WIyWlLk6GJQsqaUBKTNV-1">
          <mxGeometry x="320" y="680" width="120" height="80" as="geometry" />
        </mxCell>
        <mxCell id="jUcVNDu6kZ51KJkC1I8T-25" value="&lt;font style=&quot;font-size: 22px;&quot;&gt;Stop&lt;/font&gt;" style="text;html=1;strokeColor=none;fillColor=none;align=center;verticalAlign=middle;whiteSpace=wrap;rounded=0;fontSize=16;fontColor=#FEFAE0;" vertex="1" parent="WIyWlLk6GJQsqaUBKTNV-1">
          <mxGeometry x="350" y="700" width="60" height="30" as="geometry" />
        </mxCell>
      </root>
    </mxGraphModel>
  </diagram>
</mxfile>
